<svg xmlns="http://www.w3.org/2000/svg" xmlns:xlink="http://www.w3.org/1999/xlink" width="510" zoomAndPan="magnify" viewBox="0 0 382.5 213.749993" height="285" preserveAspectRatio="xMidYMid meet" version="1.0"><defs><clipPath id="7e5f12f325"><path d="M 9.367188 13.070312 L 373.042969 13.070312 L 373.042969 210.972656 L 9.367188 210.972656 Z M 9.367188 13.070312 " clip-rule="nonzero"/></clipPath><clipPath id="b605d1638e"><path d="M 16.417969 202.296875 L 362.628906 202.296875 L 362.628906 210.972656 L 16.417969 210.972656 Z M 16.417969 202.296875 " clip-rule="nonzero"/></clipPath><clipPath id="1b325bbf54"><path d="M 109 2.507812 L 155 2.507812 L 155 48 L 109 48 Z M 109 2.507812 " clip-rule="nonzero"/></clipPath></defs><g clip-path="url(#7e5f12f325)"><path fill="#ecf8fd" d="M 87.082031 210.945312 C 44.164062 210.945312 9.367188 180.625 9.367188 143.222656 C 9.367188 113.992188 30.628906 89.082031 60.410156 79.597656 C 61.625 79.210938 62.410156 77.988281 62.277344 76.683594 C 62.171875 75.652344 62.113281 74.609375 62.113281 73.554688 C 62.113281 54.605469 79.742188 39.246094 101.488281 39.246094 C 108.480469 39.246094 115.046875 40.835938 120.738281 43.621094 C 121.109375 43.800781 121.492188 43.886719 121.878906 43.886719 C 122.671875 43.886719 123.445312 43.523438 123.96875 42.859375 C 137.964844 25.027344 161.492188 13.324219 188.152344 13.324219 C 212.695312 13.324219 234.578125 23.238281 248.820312 38.71875 C 249.339844 39.285156 250.046875 39.582031 250.765625 39.582031 C 251.195312 39.582031 251.632812 39.476562 252.03125 39.253906 C 258.15625 35.832031 265.433594 33.851562 273.242188 33.851562 C 294.984375 33.851562 312.613281 49.214844 312.613281 68.164062 C 312.613281 69.476562 313.5 70.613281 314.746094 70.894531 C 348.273438 78.40625 373.046875 104.921875 373.046875 136.480469 C 373.046875 173.882812 338.253906 204.207031 295.332031 204.207031 C 288.398438 204.207031 281.675781 203.414062 275.277344 201.925781 C 275.085938 201.882812 274.890625 201.863281 274.695312 201.863281 C 274.171875 201.863281 273.660156 202.019531 273.214844 202.316406 C 266.566406 206.789062 258.230469 209.449219 249.1875 209.449219 C 238.296875 209.449219 228.441406 205.59375 221.3125 199.371094 C 220.828125 198.945312 220.214844 198.722656 219.59375 198.722656 C 219.363281 198.722656 219.132812 198.75 218.910156 198.8125 C 211.875 200.671875 218.960938 205.773438 194.261719 208.117188 C 191.671875 208.363281 188.425781 208.738281 185.246094 208.738281 C 178.402344 208.738281 171.890625 207 173.03125 198.5 C 173.0625 198.253906 172.917969 198.160156 172.683594 198.160156 C 172.199219 198.160156 171.335938 198.566406 170.910156 198.84375 C 164.328125 203.152344 156.152344 205.703125 147.289062 205.703125 C 140.546875 205.703125 134.203125 204.222656 128.65625 201.621094 C 128.308594 201.460938 127.933594 201.378906 127.5625 201.378906 C 127.152344 201.378906 126.742188 201.476562 126.363281 201.667969 C 114.839844 207.566406 101.410156 210.945312 87.082031 210.945312 " fill-opacity="1" fill-rule="nonzero"/></g><path fill="#5e3732" d="M 148.257812 162.410156 L 118.390625 162.410156 C 111.433594 162.410156 106.023438 154.546875 106.777344 145.539062 L 109.707031 110.566406 C 110.703125 98.660156 119.171875 89.589844 129.289062 89.589844 L 136.542969 89.589844 C 146.453125 89.589844 154.816406 98.308594 156.0625 109.9375 L 159.828125 145.085938 C 160.808594 154.238281 155.351562 162.410156 148.257812 162.410156 " fill-opacity="1" fill-rule="nonzero"/><path fill="#093d62" d="M 175.445312 204.285156 L 89.898438 204.285156 L 89.898438 186.070312 C 89.898438 168.980469 103.769531 155.128906 120.871094 155.128906 L 144.472656 155.128906 C 161.582031 155.128906 175.445312 168.980469 175.445312 186.070312 L 175.445312 204.285156 " fill-opacity="1" fill-rule="nonzero"/><path fill="#ffffff" d="M 148.648438 155.023438 L 140.546875 154.824219 L 132.65625 182.136719 L 124.796875 154.824219 L 117.484375 154.824219 L 124.796875 174.121094 L 119.351562 179.402344 L 132.675781 203.21875 L 146.273438 179.023438 L 141.117188 174.246094 L 148.648438 155.023438 " fill-opacity="1" fill-rule="nonzero"/><path fill="#fdae86" d="M 132.742188 144.65625 C 130.332031 144.714844 127.824219 143.246094 125.601562 140.746094 L 124.796875 158.535156 L 132.675781 182.191406 L 140.546875 158.535156 L 139.738281 140.636719 C 137.515625 143.109375 135.046875 144.605469 132.742188 144.65625 " fill-opacity="1" fill-rule="nonzero"/><path fill="#e67b5f" d="M 132.675781 142.078125 C 129.988281 142.078125 127.617188 141.589844 125.550781 140.695312 L 125.601562 140.746094 C 127.824219 143.246094 130.332031 144.714844 132.742188 144.65625 C 135.046875 144.605469 137.515625 143.109375 139.738281 140.636719 L 139.851562 140.507812 C 137.738281 141.523438 135.339844 142.078125 132.675781 142.078125 " fill-opacity="1" fill-rule="nonzero"/><path fill="#f8a883" d="M 132.675781 142.078125 C 135.339844 142.078125 137.738281 141.523438 139.851562 140.507812 C 146.898438 137.121094 150.761719 128.644531 150.761719 118.71875 C 150.761719 105.816406 146.222656 95.355469 132.675781 95.355469 C 118.414062 95.355469 114.582031 105.816406 114.582031 118.71875 C 114.582031 128.828125 118.070312 137.441406 125.550781 140.695312 C 127.617188 141.589844 129.988281 142.078125 132.675781 142.078125 " fill-opacity="1" fill-rule="nonzero"/><path fill="#5e3732" d="M 133.078125 94.691406 C 130.972656 98.027344 138.976562 107.125 146.28125 112.484375 C 147.070312 113.0625 160.558594 121.527344 159.648438 118.851562 C 156.863281 110.675781 147.5 94.746094 135.882812 93.382812 C 135.191406 93.304688 133.734375 93.648438 133.078125 94.691406 " fill-opacity="1" fill-rule="nonzero"/><path fill="#5e3732" d="M 131.519531 90.507812 C 128.105469 88.9375 120.371094 97.765625 116.113281 105.429688 C 115.652344 106.257812 109.496094 117.445312 111.589844 119.019531 C 114.636719 121.308594 135.585938 103.597656 133.082031 93.011719 C 132.929688 92.367188 132.585938 90.996094 131.519531 90.507812 " fill-opacity="1" fill-rule="nonzero"/><path fill="#1d1d1b" d="M 154.945312 115.347656 L 153.414062 115.347656 C 151.203125 102.652344 142.789062 93.207031 132.742188 93.207031 C 122.703125 93.207031 114.289062 102.652344 112.070312 115.347656 L 110.539062 115.347656 C 111.5 101.519531 121.078125 90.652344 132.742188 90.652344 C 144.410156 90.652344 153.984375 101.519531 154.945312 115.347656 " fill-opacity="1" fill-rule="nonzero"/><path fill="#1d1d1b" d="M 155.683594 126.070312 L 152.648438 126.816406 L 152.648438 114.226562 L 155.683594 114.972656 L 155.683594 126.070312 " fill-opacity="1" fill-rule="nonzero"/><path fill="#1d1d1b" d="M 109.972656 126.816406 L 113.238281 127.625 L 113.238281 114.0625 L 109.972656 114.871094 L 109.972656 126.816406 " fill-opacity="1" fill-rule="nonzero"/><path fill="#1d1d1b" d="M 151.328125 128.109375 C 150.425781 128.109375 149.699219 127.382812 149.699219 126.480469 L 149.699219 114.722656 C 149.699219 113.824219 150.425781 113.09375 151.328125 113.09375 C 152.230469 113.09375 152.960938 113.824219 152.960938 114.722656 L 152.960938 126.480469 C 152.960938 127.382812 152.230469 128.109375 151.328125 128.109375 " fill-opacity="1" fill-rule="nonzero"/><path fill="#ffffff" d="M 152.730469 114.386719 C 152.730469 115.777344 152.730469 117.167969 152.730469 118.558594 C 152.730469 120.757812 152.730469 122.953125 152.730469 125.152344 C 152.730469 125.65625 152.730469 126.15625 152.730469 126.660156 C 152.730469 126.789062 152.90625 126.789062 152.90625 126.660156 C 152.90625 125.269531 152.90625 123.875 152.90625 122.484375 C 152.90625 120.285156 152.90625 118.089844 152.90625 115.890625 C 152.90625 115.390625 152.90625 114.886719 152.90625 114.386719 C 152.90625 114.257812 152.730469 114.257812 152.730469 114.386719 " fill-opacity="1" fill-rule="nonzero"/><path fill="#1d1d1b" d="M 114.160156 128.109375 C 115.058594 128.109375 115.792969 127.382812 115.792969 126.480469 L 115.792969 114.722656 C 115.792969 113.824219 115.058594 113.09375 114.160156 113.09375 C 113.257812 113.09375 112.527344 113.824219 112.527344 114.722656 L 112.527344 126.480469 C 112.527344 127.382812 113.257812 128.109375 114.160156 128.109375 " fill-opacity="1" fill-rule="nonzero"/><path fill="#ffffff" d="M 112.582031 114.710938 C 112.582031 116.097656 112.582031 117.492188 112.582031 118.882812 C 112.582031 121.082031 112.582031 123.277344 112.582031 125.476562 C 112.582031 125.976562 112.582031 126.476562 112.582031 126.984375 C 112.582031 127.109375 112.757812 127.109375 112.757812 126.984375 C 112.757812 125.589844 112.757812 124.199219 112.757812 122.808594 C 112.757812 120.609375 112.757812 118.414062 112.757812 116.214844 C 112.757812 115.714844 112.757812 115.210938 112.757812 114.710938 C 112.757812 114.582031 112.582031 114.582031 112.582031 114.710938 " fill-opacity="1" fill-rule="nonzero"/><path fill="#1d1d1b" d="M 137.222656 139.613281 C 136.9375 139.613281 136.648438 139.605469 136.363281 139.585938 L 136.429688 138.296875 C 140.0625 138.535156 143.558594 137.144531 146.269531 134.390625 C 148.980469 131.632812 150.59375 127.839844 150.800781 123.699219 L 151.929688 123.777344 C 151.707031 128.253906 149.964844 132.371094 147.027344 135.355469 C 144.300781 138.121094 140.847656 139.613281 137.222656 139.613281 " fill-opacity="1" fill-rule="nonzero"/><path fill="#1d1d1b" d="M 137.640625 138.847656 C 137.640625 139.964844 136.335938 140.867188 134.726562 140.867188 C 133.125 140.867188 131.820312 139.964844 131.820312 138.847656 C 131.820312 137.734375 133.125 136.828125 134.726562 136.828125 C 136.335938 136.828125 137.640625 137.734375 137.640625 138.847656 " fill-opacity="1" fill-rule="nonzero"/><path fill="#fdae86" d="M 260.273438 160.597656 L 243.03125 160.597656 L 243.828125 143.988281 L 243.832031 143.953125 L 243.882812 142.855469 L 259.417969 142.855469 L 259.464844 143.796875 L 259.464844 143.871094 L 260.273438 160.597656 " fill-opacity="1" fill-rule="nonzero"/><path fill="#e67b5f" d="M 267.578125 122.480469 C 267.578125 135.808594 258.945312 147.871094 251.730469 148.03125 C 244.199219 148.191406 235.882812 135.808594 235.882812 122.480469 C 235.882812 109.148438 239.238281 98.339844 251.730469 98.339844 C 263.597656 98.339844 267.578125 109.148438 267.578125 122.480469 " fill-opacity="1" fill-rule="nonzero"/><path fill="#f8a883" d="M 271.65625 121.222656 C 271.65625 134.558594 264.4375 145.367188 251.652344 145.367188 C 237.921875 145.367188 231.648438 134.558594 231.648438 121.222656 C 231.648438 107.890625 235.882812 97.085938 251.652344 97.085938 C 266.632812 97.085938 271.65625 107.890625 271.65625 121.222656 " fill-opacity="1" fill-rule="nonzero"/><path fill="#3c3c3b" d="M 292.460938 203.824219 L 210.84375 203.824219 L 210.84375 187.445312 C 210.84375 170.636719 224.480469 157.015625 241.304688 157.015625 L 262 157.015625 C 278.820312 157.015625 292.460938 170.636719 292.460938 187.445312 L 292.460938 203.824219 " fill-opacity="1" fill-rule="nonzero"/><path fill="#ededed" d="M 242.675781 157.015625 L 249.980469 204.285156 L 260.9375 157.015625 Z M 242.675781 157.015625 " fill-opacity="1" fill-rule="nonzero"/><path fill="#093d62" d="M 257.863281 196.515625 L 257.070312 197.292969 L 250.4375 203.820312 L 249.957031 204.285156 L 244.648438 197.820312 L 247.359375 181.484375 L 250.859375 160.394531 L 252.707031 160.394531 L 255.570312 180.453125 L 255.910156 182.84375 L 257.863281 196.515625 " fill-opacity="1" fill-rule="nonzero"/><path fill="#575756" d="M 249.980469 204.285156 L 249.972656 204.273438 L 243.746094 197.820312 L 234.667969 188.410156 L 242.367188 178.695312 L 234.667969 176.09375 L 242.675781 157.015625 L 246.457031 181.484375 L 249.976562 204.261719 L 249.980469 204.269531 L 249.980469 204.285156 " fill-opacity="1" fill-rule="nonzero"/><path fill="#575756" d="M 259.167969 179.085938 L 264.9375 189.554688 L 257.863281 196.515625 L 257.070312 197.292969 L 250.4375 203.820312 L 249.976562 204.273438 L 250.152344 203.527344 L 255.007812 182.84375 L 255.570312 180.453125 L 261.039062 157.175781 L 266.152344 177.117188 L 259.167969 179.085938 " fill-opacity="1" fill-rule="nonzero"/><path fill="#ffffff" d="M 254.6875 160.394531 L 247.929688 160.394531 L 247.929688 154.820312 L 254.6875 154.820312 L 254.6875 160.394531 " fill-opacity="1" fill-rule="nonzero"/><path fill="#05314c" d="M 249.117188 158.585938 L 251.035156 161.160156 L 252.414062 161.160156 L 253.964844 158.652344 L 249.117188 158.585938 " fill-opacity="1" fill-rule="nonzero"/><path fill="#ffffff" d="M 260.675781 153.804688 L 260.941406 158.277344 L 254.460938 163.359375 L 252.664062 153.804688 L 260.675781 153.804688 " fill-opacity="1" fill-rule="nonzero"/><path fill="#ffffff" d="M 242.382812 153.878906 L 242.113281 158.347656 L 248.648438 163.433594 L 250.46875 153.878906 L 242.382812 153.878906 " fill-opacity="1" fill-rule="nonzero"/><path fill="#5e3732" d="M 276.5625 105.574219 C 275.152344 96.796875 267.144531 92.878906 267.144531 92.878906 L 270.597656 91.3125 C 270.597656 91.3125 247.378906 84.410156 239.847656 87.859375 C 232.316406 91.3125 226.390625 109.496094 226.507812 113.566406 L 226.394531 116.710938 L 228.550781 113.097656 L 228.078125 117.175781 L 236.863281 107.925781 C 236.863281 107.925781 239.0625 112.160156 249.890625 110.902344 C 260.714844 109.648438 266.519531 108.398438 269.03125 113.882812 C 271.539062 119.367188 272.484375 122.660156 272.484375 122.660156 L 274.601562 115.292969 C 274.601562 115.292969 277.972656 114.351562 276.5625 105.574219 " fill-opacity="1" fill-rule="nonzero"/><path fill="#1d1d1b" d="M 276.113281 115.105469 L 274.421875 115.105469 C 271.972656 101.984375 262.664062 92.230469 251.558594 92.230469 C 240.453125 92.230469 231.144531 101.984375 228.695312 115.105469 L 227.003906 115.105469 C 228.066406 100.816406 238.652344 89.589844 251.558594 89.589844 C 264.460938 89.589844 275.050781 100.816406 276.113281 115.105469 " fill-opacity="1" fill-rule="nonzero"/><path fill="#1d1d1b" d="M 276.925781 126.183594 L 273.574219 126.957031 L 273.574219 113.941406 L 276.925781 114.714844 L 276.925781 126.183594 " fill-opacity="1" fill-rule="nonzero"/><path fill="#1d1d1b" d="M 226.375 126.957031 L 229.984375 127.792969 L 229.984375 113.777344 L 226.375 114.609375 L 226.375 126.957031 " fill-opacity="1" fill-rule="nonzero"/><path fill="#1d1d1b" d="M 272.113281 128.289062 C 271.117188 128.289062 270.308594 127.484375 270.308594 126.488281 L 270.308594 114.578125 C 270.308594 113.582031 271.117188 112.773438 272.113281 112.773438 C 273.109375 112.773438 273.917969 113.582031 273.917969 114.578125 L 273.917969 126.488281 C 273.917969 127.484375 273.109375 128.289062 272.113281 128.289062 " fill-opacity="1" fill-rule="nonzero"/><path fill="#ffffff" d="M 273.664062 114.113281 C 273.664062 115.546875 273.664062 116.984375 273.664062 118.421875 C 273.664062 120.691406 273.664062 122.964844 273.664062 125.234375 C 273.664062 125.753906 273.664062 126.273438 273.664062 126.789062 C 273.664062 126.921875 273.855469 126.921875 273.855469 126.789062 C 273.855469 125.355469 273.855469 123.917969 273.855469 122.480469 C 273.855469 120.207031 273.855469 117.9375 273.855469 115.664062 C 273.855469 115.144531 273.855469 114.628906 273.855469 114.113281 C 273.855469 113.976562 273.664062 113.976562 273.664062 114.113281 " fill-opacity="1" fill-rule="nonzero"/><path fill="#1d1d1b" d="M 231.003906 128.289062 C 232 128.289062 232.808594 127.484375 232.808594 126.488281 L 232.808594 114.578125 C 232.808594 113.582031 232 112.773438 231.003906 112.773438 C 230.003906 112.773438 229.199219 113.582031 229.199219 114.578125 L 229.199219 126.488281 C 229.199219 127.484375 230.003906 128.289062 231.003906 128.289062 " fill-opacity="1" fill-rule="nonzero"/><path fill="#ffffff" d="M 229.257812 114.445312 C 229.257812 115.882812 229.257812 117.320312 229.257812 118.757812 C 229.257812 121.023438 229.257812 123.296875 229.257812 125.566406 C 229.257812 126.085938 229.257812 126.605469 229.257812 127.125 C 229.257812 127.253906 229.453125 127.253906 229.453125 127.125 C 229.453125 125.6875 229.453125 124.25 229.453125 122.8125 C 229.453125 120.539062 229.453125 118.269531 229.453125 116 C 229.453125 115.480469 229.453125 114.960938 229.453125 114.445312 C 229.453125 114.3125 229.257812 114.3125 229.257812 114.445312 " fill-opacity="1" fill-rule="nonzero"/><path fill="#1d1d1b" d="M 256.507812 140.179688 C 256.195312 140.179688 255.878906 140.167969 255.5625 140.152344 L 255.632812 138.816406 C 259.652344 139.0625 263.519531 137.628906 266.519531 134.78125 C 269.519531 131.933594 271.296875 128.011719 271.527344 123.734375 L 272.78125 123.808594 C 272.53125 128.441406 270.605469 132.691406 267.355469 135.773438 C 264.34375 138.632812 260.523438 140.179688 256.507812 140.179688 " fill-opacity="1" fill-rule="nonzero"/><path fill="#1d1d1b" d="M 256.972656 139.386719 C 256.972656 140.539062 255.53125 141.472656 253.753906 141.472656 C 251.976562 141.472656 250.539062 140.539062 250.539062 139.386719 C 250.539062 138.234375 251.976562 137.300781 253.753906 137.300781 C 255.53125 137.300781 256.972656 138.234375 256.972656 139.386719 " fill-opacity="1" fill-rule="nonzero"/><g clip-path="url(#b605d1638e)"><path fill="#1d5172" d="M 358.242188 210.972656 L 21.15625 210.972656 C 18.847656 210.972656 16.976562 209.101562 16.976562 206.796875 C 16.976562 204.488281 18.847656 202.617188 21.15625 202.617188 L 358.242188 202.617188 C 360.550781 202.617188 362.421875 204.488281 362.421875 206.796875 C 362.421875 209.101562 360.550781 210.972656 358.242188 210.972656 " fill-opacity="1" fill-rule="nonzero"/></g><path fill="#0f304f" d="M 27.835938 162.183594 L 26.457031 163.652344 L 27.835938 162.183594 " fill-opacity="1" fill-rule="nonzero"/><path fill="#0f304f" d="M 51.125 190.78125 C 48.226562 190.964844 45.84375 188.582031 46.023438 185.691406 C 46.175781 183.304688 48.113281 181.371094 50.496094 181.21875 C 53.390625 181.039062 55.78125 183.421875 55.59375 186.3125 C 55.445312 188.695312 53.507812 190.628906 51.125 190.78125 Z M 74.960938 166.410156 L 23.863281 166.410156 L 30.578125 202.828125 C 31.0625 205.46875 33.367188 207.386719 36.054688 207.386719 L 82.320312 207.386719 L 82.320312 202.597656 L 74.960938 166.410156 " fill-opacity="1" fill-rule="nonzero"/><path fill="#0198d7" d="M 85.230469 202.253906 L 76.804688 162.183594 L 27.835938 162.183594 L 26.457031 163.652344 L 23.863281 166.410156 L 74.960938 166.410156 L 82.320312 202.597656 L 82.320312 207.386719 L 110.75 207.386719 L 110.75 202.253906 L 85.230469 202.253906 " fill-opacity="1" fill-rule="nonzero"/><path fill="#0198d7" d="M 50.8125 181.210938 C 48.160156 181.210938 46.015625 183.355469 46.015625 186 C 46.015625 188.644531 48.160156 190.792969 50.8125 190.792969 C 53.457031 190.792969 55.605469 188.644531 55.605469 186 C 55.605469 183.355469 53.457031 181.210938 50.8125 181.210938 " fill-opacity="1" fill-rule="nonzero"/><path fill="#0f304f" d="M 352.109375 162.183594 L 353.488281 163.652344 L 352.109375 162.183594 " fill-opacity="1" fill-rule="nonzero"/><path fill="#0f304f" d="M 324.351562 186.3125 C 324.167969 183.421875 326.554688 181.039062 329.449219 181.21875 C 331.835938 181.371094 333.773438 183.304688 333.917969 185.691406 C 334.105469 188.582031 331.71875 190.964844 328.828125 190.78125 C 326.4375 190.628906 324.5 188.695312 324.351562 186.3125 Z M 297.625 202.597656 L 297.625 207.386719 L 343.890625 207.386719 C 346.578125 207.386719 348.886719 205.46875 349.371094 202.828125 L 356.085938 166.410156 L 304.984375 166.410156 L 297.625 202.597656 " fill-opacity="1" fill-rule="nonzero"/><path fill="#0198d7" d="M 294.71875 202.253906 L 303.144531 162.183594 L 352.109375 162.183594 L 353.488281 163.652344 L 356.085938 166.410156 L 304.984375 166.410156 L 297.625 202.597656 L 297.625 207.386719 L 269.199219 207.386719 L 269.199219 202.253906 L 294.71875 202.253906 " fill-opacity="1" fill-rule="nonzero"/><path fill="#0198d7" d="M 329.136719 181.210938 C 331.78125 181.210938 333.933594 183.355469 333.933594 186 C 333.933594 188.644531 331.78125 190.792969 329.136719 190.792969 C 326.488281 190.792969 324.339844 188.644531 324.339844 186 C 324.339844 183.355469 326.488281 181.210938 329.136719 181.210938 " fill-opacity="1" fill-rule="nonzero"/><path fill="#f76465" d="M 68.445312 63.5625 L 96.296875 63.5625 C 99.78125 63.5625 102.601562 66.382812 102.601562 69.859375 L 102.601562 80.445312 C 102.601562 83.917969 99.78125 86.738281 96.296875 86.738281 L 96.296875 97.136719 L 89.359375 86.746094 L 90.605469 86.738281 L 68.445312 86.738281 C 64.964844 86.738281 62.144531 83.917969 62.144531 80.445312 L 62.144531 69.859375 C 62.144531 66.382812 64.964844 63.5625 68.445312 63.5625 " fill-opacity="1" fill-rule="nonzero"/><path fill="#ffffff" d="M 78.480469 75.523438 C 78.480469 76.453125 77.726562 77.207031 76.792969 77.207031 C 75.859375 77.207031 75.101562 76.453125 75.101562 75.523438 C 75.101562 74.589844 75.859375 73.835938 76.792969 73.835938 C 77.726562 73.835938 78.480469 74.589844 78.480469 75.523438 " fill-opacity="1" fill-rule="nonzero"/><path fill="#ffffff" d="M 84.058594 75.523438 C 84.058594 76.453125 83.304688 77.207031 82.371094 77.207031 C 81.4375 77.207031 80.683594 76.453125 80.683594 75.523438 C 80.683594 74.589844 81.4375 73.835938 82.371094 73.835938 C 83.304688 73.835938 84.058594 74.589844 84.058594 75.523438 " fill-opacity="1" fill-rule="nonzero"/><path fill="#ffffff" d="M 89.640625 75.523438 C 89.640625 76.453125 88.882812 77.207031 87.953125 77.207031 C 87.019531 77.207031 86.261719 76.453125 86.261719 75.523438 C 86.261719 74.589844 87.019531 73.835938 87.953125 73.835938 C 88.882812 73.835938 89.640625 74.589844 89.640625 75.523438 " fill-opacity="1" fill-rule="nonzero"/><path fill="#f76465" d="M 215.175781 43.316406 L 231.40625 43.316406 C 233.433594 43.316406 235.078125 44.960938 235.078125 46.984375 L 235.078125 53.152344 C 235.078125 55.179688 233.433594 56.820312 231.40625 56.820312 L 231.40625 62.878906 L 227.363281 56.824219 L 228.089844 56.820312 L 215.175781 56.820312 C 213.148438 56.820312 211.503906 55.179688 211.503906 53.152344 L 211.503906 46.984375 C 211.503906 44.960938 213.148438 43.316406 215.175781 43.316406 " fill-opacity="1" fill-rule="nonzero"/><path fill="#ffffff" d="M 223.25 54.804688 L 223.171875 54.773438 L 219.792969 51.394531 C 219.046875 50.648438 218.609375 49.835938 218.523438 49.039062 C 218.441406 48.316406 218.660156 47.664062 219.128906 47.195312 C 219.597656 46.730469 220.25 46.515625 220.96875 46.59375 C 221.738281 46.671875 222.527344 47.085938 223.25 47.78125 C 224.277344 46.789062 225.4375 46.375 226.445312 46.644531 C 227.175781 46.839844 227.730469 47.394531 227.925781 48.125 C 228.203125 49.15625 227.757812 50.347656 226.710938 51.394531 L 223.328125 54.773438 L 223.25 54.804688 " fill-opacity="1" fill-rule="nonzero"/><path fill="#f76465" d="M 44.015625 39.484375 L 27.785156 39.484375 C 25.757812 39.484375 24.113281 41.125 24.113281 43.152344 L 24.113281 49.316406 C 24.113281 51.339844 25.757812 52.984375 27.785156 52.984375 L 27.785156 59.046875 L 31.828125 52.988281 L 31.101562 52.984375 L 44.015625 52.984375 C 46.042969 52.984375 47.6875 51.339844 47.6875 49.316406 L 47.6875 43.152344 C 47.6875 41.125 46.042969 39.484375 44.015625 39.484375 " fill-opacity="1" fill-rule="nonzero"/><path fill="#ffffff" d="M 35.863281 50.9375 L 32.484375 47.558594 C 31.433594 46.515625 30.988281 45.320312 31.269531 44.292969 C 31.464844 43.5625 32.019531 43.007812 32.75 42.8125 C 33.753906 42.542969 34.914062 42.957031 35.941406 43.949219 C 36.667969 43.25 37.453125 42.839844 38.226562 42.757812 C 38.945312 42.679688 39.597656 42.894531 40.0625 43.363281 C 40.53125 43.828125 40.75 44.484375 40.667969 45.199219 C 40.585938 46 40.148438 46.816406 39.402344 47.558594 L 36.019531 50.9375 L 35.941406 50.96875 L 35.863281 50.9375 " fill-opacity="1" fill-rule="nonzero"/><path fill="#f76465" d="M 355.878906 27.980469 L 339.648438 27.980469 C 337.617188 27.980469 335.976562 29.621094 335.976562 31.644531 L 335.976562 37.8125 C 335.976562 39.835938 337.617188 41.480469 339.648438 41.480469 L 339.648438 47.539062 L 343.691406 41.484375 L 342.964844 41.480469 L 355.878906 41.480469 C 357.90625 41.480469 359.546875 39.835938 359.546875 37.8125 L 359.546875 31.644531 C 359.546875 29.621094 357.90625 27.980469 355.878906 27.980469 " fill-opacity="1" fill-rule="nonzero"/><path fill="#ffffff" d="M 347.726562 39.433594 L 344.34375 36.054688 C 343.296875 35.011719 342.851562 33.816406 343.128906 32.785156 C 343.324219 32.058594 343.878906 31.503906 344.613281 31.308594 C 345.617188 31.035156 346.777344 31.453125 347.804688 32.441406 C 348.527344 31.746094 349.316406 31.335938 350.085938 31.253906 C 350.804688 31.175781 351.460938 31.390625 351.925781 31.859375 C 352.394531 32.324219 352.609375 32.980469 352.535156 33.699219 C 352.445312 34.496094 352.007812 35.308594 351.261719 36.054688 L 347.878906 39.433594 L 347.804688 39.464844 L 347.726562 39.433594 " fill-opacity="1" fill-rule="nonzero"/><g clip-path="url(#1b325bbf54)"><path fill="#e84b5a" d="M 154.125 24.757812 C 154.125 37.050781 144.152344 47.015625 131.851562 47.015625 C 119.550781 47.015625 109.578125 37.050781 109.578125 24.757812 C 109.578125 12.46875 119.550781 2.503906 131.851562 2.503906 C 144.152344 2.503906 154.125 12.46875 154.125 24.757812 " fill-opacity="1" fill-rule="nonzero"/></g><path fill="#ffffff" d="M 125.316406 18.585938 L 125.316406 28.957031 C 125.316406 30.230469 126.554688 31.132812 127.765625 30.746094 L 141.234375 26.484375 C 142.683594 26.027344 142.851562 24.050781 141.507812 23.347656 L 128.566406 16.613281 C 127.085938 15.847656 125.316406 16.921875 125.316406 18.585938 " fill-opacity="1" fill-rule="nonzero"/><path fill="#dff3fc" d="M 288.652344 30.648438 C 288.652344 39.410156 281.542969 46.519531 272.769531 46.519531 C 263.996094 46.519531 256.886719 39.410156 256.886719 30.648438 C 256.886719 21.882812 263.996094 14.78125 272.769531 14.78125 C 281.542969 14.78125 288.652344 21.882812 288.652344 30.648438 " fill-opacity="1" fill-rule="nonzero"/><path fill="#0198d7" d="M 272.769531 15.554688 C 264.4375 15.554688 257.664062 22.324219 257.664062 30.648438 C 257.664062 38.972656 264.4375 45.746094 272.769531 45.746094 C 281.101562 45.746094 287.878906 38.972656 287.878906 30.648438 C 287.878906 22.324219 281.101562 15.554688 272.769531 15.554688 Z M 272.769531 47.289062 C 268.324219 47.289062 264.140625 45.558594 260.992188 42.417969 C 257.847656 39.273438 256.117188 35.09375 256.117188 30.648438 C 256.117188 26.207031 257.847656 22.027344 260.992188 18.882812 C 264.140625 15.742188 268.324219 14.007812 272.769531 14.007812 C 277.21875 14.007812 281.402344 15.742188 284.546875 18.882812 C 287.695312 22.027344 289.425781 26.207031 289.425781 30.648438 C 289.425781 35.09375 287.695312 39.273438 284.546875 42.417969 C 281.402344 45.558594 277.21875 47.289062 272.769531 47.289062 " fill-opacity="1" fill-rule="nonzero"/><path fill="#0198d7" d="M 273.46875 20.03125 L 272.074219 20.03125 L 272.074219 14.78125 L 273.46875 14.78125 L 273.46875 20.03125 " fill-opacity="1" fill-rule="nonzero"/><path fill="#0198d7" d="M 273.46875 46.519531 L 272.074219 46.519531 L 272.074219 41.265625 L 273.46875 41.265625 L 273.46875 46.519531 " fill-opacity="1" fill-rule="nonzero"/><path fill="#0198d7" d="M 283.398438 31.347656 L 283.398438 29.953125 L 288.652344 29.953125 L 288.652344 31.347656 L 283.398438 31.347656 " fill-opacity="1" fill-rule="nonzero"/><path fill="#0198d7" d="M 256.886719 31.347656 L 256.886719 29.953125 L 262.144531 29.953125 L 262.144531 31.347656 L 256.886719 31.347656 " fill-opacity="1" fill-rule="nonzero"/><path fill="#0198d7" d="M 272.347656 34.394531 C 271.726562 34.394531 271.222656 33.894531 271.222656 33.273438 L 271.222656 22.621094 C 271.222656 22 271.726562 21.5 272.347656 21.5 C 272.964844 21.5 273.46875 22 273.46875 22.621094 L 273.46875 33.273438 C 273.46875 33.894531 272.964844 34.394531 272.347656 34.394531 " fill-opacity="1" fill-rule="nonzero"/><path fill="#0198d7" d="M 272.777344 34.238281 C 272.308594 34.507812 271.710938 34.347656 271.4375 33.878906 L 267.074219 26.328125 C 266.804688 25.863281 266.96875 25.265625 267.433594 24.996094 C 267.902344 24.722656 268.5 24.886719 268.769531 25.355469 L 273.132812 32.902344 C 273.40625 33.371094 273.246094 33.96875 272.777344 34.238281 " fill-opacity="1" fill-rule="nonzero"/><path fill="#0198d7" d="M 345.480469 68.164062 L 299.109375 68.164062 C 295.144531 68.164062 291.929688 71.375 291.929688 75.332031 L 291.929688 95.78125 C 291.929688 99.742188 295.144531 102.949219 299.109375 102.949219 L 301.390625 102.949219 L 301.390625 118.558594 L 311.808594 102.957031 L 309.933594 102.949219 L 345.480469 102.949219 C 349.445312 102.949219 352.65625 99.742188 352.65625 95.78125 L 352.65625 75.332031 C 352.65625 71.375 349.445312 68.164062 345.480469 68.164062 " fill-opacity="1" fill-rule="nonzero"/><path fill="#e1f3fd" d="M 307.355469 80.351562 L 296.933594 80.351562 C 295.988281 80.351562 295.21875 79.585938 295.21875 78.636719 C 295.21875 77.691406 295.988281 76.925781 296.933594 76.925781 L 307.355469 76.925781 C 308.300781 76.925781 309.066406 77.691406 309.066406 78.636719 C 309.066406 79.585938 308.300781 80.351562 307.355469 80.351562 " fill-opacity="1" fill-rule="nonzero"/><path fill="#e1f3fd" d="M 307.355469 87.0625 L 296.933594 87.0625 C 295.988281 87.0625 295.21875 86.292969 295.21875 85.347656 C 295.21875 84.402344 295.988281 83.636719 296.933594 83.636719 L 307.355469 83.636719 C 308.300781 83.636719 309.066406 84.402344 309.066406 85.347656 C 309.066406 86.292969 308.300781 87.0625 307.355469 87.0625 " fill-opacity="1" fill-rule="nonzero"/><path fill="#e1f3fd" d="M 347.652344 93.910156 L 337.238281 93.910156 C 336.289062 93.910156 335.523438 93.144531 335.523438 92.199219 C 335.523438 91.253906 336.289062 90.484375 337.238281 90.484375 L 347.652344 90.484375 C 348.601562 90.484375 349.367188 91.253906 349.367188 92.199219 C 349.367188 93.144531 348.601562 93.910156 347.652344 93.910156 " fill-opacity="1" fill-rule="nonzero"/><path fill="#e1f3fd" d="M 346.695312 80.351562 L 336.277344 80.351562 C 335.332031 80.351562 334.5625 79.585938 334.5625 78.636719 C 334.5625 77.691406 335.332031 76.925781 336.277344 76.925781 L 346.695312 76.925781 C 347.640625 76.925781 348.410156 77.691406 348.410156 78.636719 C 348.410156 79.585938 347.640625 80.351562 346.695312 80.351562 " fill-opacity="1" fill-rule="nonzero"/><path fill="#e1f3fd" d="M 330.519531 80.351562 L 312.972656 80.351562 C 312.027344 80.351562 311.257812 79.585938 311.257812 78.636719 C 311.257812 77.691406 312.027344 76.925781 312.972656 76.925781 L 330.519531 76.925781 C 331.464844 76.925781 332.234375 77.691406 332.234375 78.636719 C 332.234375 79.585938 331.464844 80.351562 330.519531 80.351562 " fill-opacity="1" fill-rule="nonzero"/><path fill="#e1f3fd" d="M 330.65625 93.910156 L 320.238281 93.910156 C 319.292969 93.910156 318.523438 93.144531 318.523438 92.199219 C 318.523438 91.253906 319.292969 90.484375 320.238281 90.484375 L 330.65625 90.484375 C 331.605469 90.484375 332.371094 91.253906 332.371094 92.199219 C 332.371094 93.144531 331.605469 93.910156 330.65625 93.910156 " fill-opacity="1" fill-rule="nonzero"/><path fill="#e1f3fd" d="M 314.480469 93.910156 L 296.933594 93.910156 C 295.988281 93.910156 295.21875 93.144531 295.21875 92.199219 C 295.21875 91.253906 295.988281 90.484375 296.933594 90.484375 L 314.480469 90.484375 C 315.425781 90.484375 316.195312 91.253906 316.195312 92.199219 C 316.195312 93.144531 315.425781 93.910156 314.480469 93.910156 " fill-opacity="1" fill-rule="nonzero"/><path fill="#e1f3fd" d="M 346.007812 87.0625 L 314.34375 87.0625 C 313.394531 87.0625 312.628906 86.292969 312.628906 85.347656 C 312.628906 84.402344 313.394531 83.636719 314.34375 83.636719 L 346.007812 83.636719 C 346.957031 83.636719 347.722656 84.402344 347.722656 85.347656 C 347.722656 86.292969 346.957031 87.0625 346.007812 87.0625 " fill-opacity="1" fill-rule="nonzero"/></svg>